<?xml version="1.0" encoding="UTF-8" standalone="no"?>
<!-- Created with Inkscape (http://www.inkscape.org/) -->

<svg
   xmlns:dc="http://purl.org/dc/elements/1.1/"
   xmlns:cc="http://creativecommons.org/ns#"
   xmlns:rdf="http://www.w3.org/1999/02/22-rdf-syntax-ns#"
   xmlns:svg="http://www.w3.org/2000/svg"
   xmlns="http://www.w3.org/2000/svg"
   xmlns:sodipodi="http://sodipodi.sourceforge.net/DTD/sodipodi-0.dtd"
   xmlns:inkscape="http://www.inkscape.org/namespaces/inkscape"
   width="100mm"
   height="200mm"
   viewBox="0 0 100 200"
   version="1.1"
   id="svg8"
   sodipodi:docname="persona1.svg"
   inkscape:version="0.92.3 (2405546, 2018-03-11)">
  <defs
     id="defs2" />
  <sodipodi:namedview
     id="base"
     pagecolor="#ffffff"
     bordercolor="#666666"
     borderopacity="1.0"
     inkscape:pageopacity="0.0"
     inkscape:pageshadow="2"
     inkscape:zoom="0.7"
     inkscape:cx="409.90439"
     inkscape:cy="421.58223"
     inkscape:document-units="mm"
     inkscape:current-layer="layer1"
     showgrid="true"
     inkscape:showpageshadow="false"
     inkscape:snap-bbox="true"
     inkscape:bbox-nodes="true"
     inkscape:window-width="1366"
     inkscape:window-height="705"
     inkscape:window-x="-8"
     inkscape:window-y="-8"
     inkscape:window-maximized="1">
    <inkscape:grid
       empspacing="1"
       type="xygrid"
       id="grid10" />
  </sodipodi:namedview>
  <metadata
     id="metadata5">
    <rdf:RDF>
      <cc:Work
         rdf:about="">
        <dc:format>image/svg+xml</dc:format>
        <dc:type
           rdf:resource="http://purl.org/dc/dcmitype/StillImage" />
        <dc:title></dc:title>
      </cc:Work>
    </rdf:RDF>
  </metadata>
  <g
     inkscape:label="Capa 1"
     inkscape:groupmode="layer"
     id="layer1"
     transform="translate(0,-97)">
    <path
       style="fill:none;stroke:#000000;stroke-width:0.26458332px;stroke-linecap:butt;stroke-linejoin:miter;stroke-opacity:1"
       d="m 37.041666,122.375 c 26.458333,0 26.458333,0 26.458333,0 v 26.45833 H 37.041666 Z"
       id="path4563"
       inkscape:connector-curvature="0" />
    <path
       style="fill:none;stroke:#000000;stroke-width:0.26458332px;stroke-linecap:butt;stroke-linejoin:miter;stroke-opacity:1"
       d="m 47.624999,148.83333 v 10.58334 h 5.291667 v -10.58334 z"
       id="path4565"
       inkscape:connector-curvature="0" />
    <path
       style="fill:none;stroke:#000000;stroke-width:0.26458332px;stroke-linecap:butt;stroke-linejoin:miter;stroke-opacity:1"
       d="M 47.624999,159.41667 H 37.041666 v 47.625 h 26.458333 v -47.625 z"
       id="path4567"
       inkscape:connector-curvature="0" />
    <path
       style="fill:none;stroke:#000000;stroke-width:0.26458332px;stroke-linecap:butt;stroke-linejoin:miter;stroke-opacity:1"
       d="M 37.041666,159.41667 H 26.458333 v 5.29166 h 10.583333 z"
       id="path4569"
       inkscape:connector-curvature="0" />
    <path
       style="fill:none;stroke:#000000;stroke-width:0.26458332px;stroke-linecap:butt;stroke-linejoin:miter;stroke-opacity:1"
       d="m 26.458333,164.70833 v 26.45834 H 31.75 v -26.45834 z"
       id="path4571"
       inkscape:connector-curvature="0" />
    <path
       style="fill:none;stroke:#000000;stroke-width:0.26458332px;stroke-linecap:butt;stroke-linejoin:miter;stroke-opacity:1"
       d="m 63.499999,164.70833 h 10.583333 v -5.29166 H 63.499999 Z"
       id="path4573"
       inkscape:connector-curvature="0" />
    <path
       style="fill:none;stroke:#000000;stroke-width:0.26458332px;stroke-linecap:butt;stroke-linejoin:miter;stroke-opacity:1"
       d="m 68.791666,164.70833 v 26.45834 h 5.291666 v -26.45834 z"
       id="path4575"
       inkscape:connector-curvature="0" />
    <path
       style="fill:none;stroke:#000000;stroke-width:0.26458332px;stroke-linecap:butt;stroke-linejoin:miter;stroke-opacity:1"
       d="m 37.041666,207.04167 v 31.75 h 5.291667 v -31.75 z"
       id="path4577"
       inkscape:connector-curvature="0" />
    <path
       style="fill:#ffffff;stroke:#000000;stroke-width:0.26458332px;stroke-linecap:butt;stroke-linejoin:miter;stroke-opacity:1"
       d="m 58.208333,207.04167 v 31.75 h 5.291666 v -31.75 z"
       id="path4579"
       inkscape:connector-curvature="0" />
    <path
       style="fill:#ffffff;stroke-width:1.42857146"
       d="M 141.61867,146.03757 V 97.46614 h 48.57143 48.57143 V 146.03757 194.609 H 190.1901 141.61867 Z"
       id="path4581"
       inkscape:connector-curvature="0"
       transform="matrix(0.26458333,0,0,0.26458333,0,97)" />
    <path
       style="fill:#ffffff;stroke-width:1.42857146"
       d="m 181.61867,216.03757 v -18.57143 h 8.57143 8.57143 v 18.57143 18.57143 h -8.57143 -8.57143 z"
       id="path4583"
       inkscape:connector-curvature="0"
       transform="matrix(0.26458333,0,0,0.26458333,0,97)" />
    <path
       style="fill:#ffffff;stroke-width:1.42857146"
       d="m 141.61867,326.03757 v -88.57143 h 48.57143 48.57143 V 326.03757 414.609 H 190.1901 141.61867 Z"
       id="path4585"
       inkscape:connector-curvature="0"
       transform="matrix(0.26458333,0,0,0.26458333,0,97)" />
    <path
       style="fill:#ffffff;stroke-width:1.42857146"
       d="m 141.61867,476.03757 v -58.57143 h 8.57143 8.57143 v 58.57143 58.57143 h -8.57143 -8.57143 z"
       id="path4587"
       inkscape:connector-curvature="0"
       transform="matrix(0.26458333,0,0,0.26458333,0,97)" />
    <path
       style="fill:#ffffff;stroke-width:1.42857146"
       d="m 221.61867,476.03757 v -58.57143 h 8.57143 8.57143 v 58.57143 58.57143 h -8.57143 -8.57143 z"
       id="path4589"
       inkscape:connector-curvature="0"
       transform="matrix(0.26458333,0,0,0.26458333,0,97)" />
    <path
       style="fill:#ffffff;stroke-width:1.42857146"
       d="m 261.61867,306.03757 v -48.57143 h 8.57143 8.57143 v 48.57143 48.57143 h -8.57143 -8.57143 z"
       id="path4591"
       inkscape:connector-curvature="0"
       transform="matrix(0.26458333,0,0,0.26458333,0,97)" />
    <path
       style="fill:#ffffff;stroke-width:1.42857146"
       d="m 101.61867,306.03757 v -48.57143 h 8.57143 8.57143 v 48.57143 48.57143 h -8.57143 -8.57143 z"
       id="path4593"
       inkscape:connector-curvature="0"
       transform="matrix(0.26458333,0,0,0.26458333,0,97)" />
    <path
       style="fill:#ffffff;stroke-width:1.42857146"
       d="m 101.61867,246.03757 v -8.57143 h 18.57143 18.57143 v 8.57143 8.57143 H 120.1901 101.61867 Z"
       id="path4597"
       inkscape:connector-curvature="0"
       transform="matrix(0.26458333,0,0,0.26458333,0,97)" />
    <path
       style="fill:#ffffff;stroke-width:1.42857146"
       d="m 241.61867,246.03757 v -8.57143 h 18.57143 18.57143 v 8.57143 8.57143 H 260.1901 241.61867 Z"
       id="path4599"
       inkscape:connector-curvature="0"
       transform="matrix(0.26458333,0,0,0.26458333,0,97)" />
    <path
       style="fill:#ffffff;stroke-width:1.42857146"
       d="m 141.61867,476.03757 v -58.57143 h 8.57143 8.57143 v 58.57143 58.57143 h -8.57143 -8.57143 z"
       id="path4601"
       inkscape:connector-curvature="0"
       transform="matrix(0.26458333,0,0,0.26458333,0,97)" />
  </g>
</svg>
